<svg width="48" height="72" viewBox="0 0 48 72" fill="none" xmlns="http://www.w3.org/2000/svg">
<g clip-path="url(#clip0_837_2073)">
<path d="M23.96 36.0136C23.96 29.4049 29.3176 24.02 35.9536 24.02C42.5623 24.02 47.9471 29.3777 47.9471 36.0136C47.9471 42.6223 42.5895 48.0072 35.9536 48.0072C29.3448 48.0072 23.96 42.6223 23.96 36.0136Z" fill="#1ABCFE"/>
<path d="M0 59.9735C0 53.3647 5.35768 47.9799 11.9936 47.9799H23.9872V59.9735C23.9872 66.5822 18.6295 71.967 11.9936 71.967C5.35768 71.967 0 66.6094 0 59.9735Z" fill="#0ACF83"/>
<path d="M23.96 0.0600333V24.02H35.9536C42.5623 24.02 47.9471 18.6623 47.9471 12.0264C47.9471 5.41772 42.5895 0.0328369 35.9536 0.0328369H23.96V0.0600333Z" fill="#FF7262"/>
<path d="M0 12.0537C0 18.6624 5.35768 24.0472 11.9936 24.0472H23.9872V0.0600586H11.9936C5.35768 0.0600586 0 5.41774 0 12.0537Z" fill="#F24E1E"/>
<path d="M0 36.0136C0 42.6223 5.35768 48.0072 11.9936 48.0072H23.9872V24.02H11.9936C5.35768 24.02 0 29.4049 0 36.0136Z" fill="#A259FF"/>
</g>
<defs>
<clipPath id="clip0_837_2073">
<rect width="47.9652" height="72" fill="white"/>
</clipPath>
</defs>
</svg>
